<?xml version="1.0" encoding="UTF-8"?>
<svg id="Layer_2" data-name="Layer 2" xmlns="http://www.w3.org/2000/svg" viewBox="0 0 306 303">
  <defs>
    <style>
      .cls-1 {
        fill: #000;
      }

      .cls-1, .cls-2 {
        stroke-width: 0px;
      }

      .cls-2 {
        fill: #ff90e8;
      }
    </style>
  </defs>
  <g id="Layer_1-2" data-name="Layer 1">
    <g>
      <circle class="cls-1" cx="157.5" cy="154.5" r="148.5"/>
      <circle class="cls-2" cx="148.5" cy="148.5" r="148.5"/>
      <path class="cls-1" d="M109.87,96.87v52.57l.07,20.36h-2.69l-18.17-72.93h-35.34v103.26h22.97v-52.79l-.07-20.15h2.55l18.18,72.94h35.33v-103.26h-22.83ZM243.26,144.28v55.85h-20.65l-2.54-15.78h-2.55c-.87,2.57-1.96,4.94-3.27,7.12s-2.96,4.09-4.94,5.71c-1.99,1.62-4.38,2.88-7.17,3.78-2.79.9-6.09,1.35-9.92,1.35-6.69,0-12.42-1.22-17.2-3.64-4.77-2.42-8.68-5.94-11.71-10.54-3.03-4.61-5.26-10.22-6.69-16.84-1.43-6.61-2.14-14.14-2.14-22.57,0-6.89.51-13.16,1.53-18.84,1.01-5.67,2.64-10.68,4.87-15.05,2.23-4.36,5.11-8.04,8.65-11.05,3.54-3,7.82-5.27,12.84-6.8,5.01-1.53,10.84-2.29,17.48-2.29,7.56,0,13.88.89,18.94,2.66,5.07,1.77,9.18,4.24,12.33,7.41,3.15,3.18,5.56,6.85,7.23,11.02,1.68,4.17,2.88,8.63,3.6,13.38l-26.17,2.54c-.54-3.29-1.47-6.11-2.8-8.43-1.34-2.33-3.09-4.11-5.27-5.35-2.19-1.23-4.8-1.85-7.86-1.85-4.6,0-8.17,1.22-10.69,3.67s-4.26,6.08-5.23,10.91c-.97,4.82-1.46,10.84-1.46,18.07,0,5.48.27,10.3.8,14.47.54,4.17,1.47,7.67,2.8,10.5,1.34,2.84,3.18,4.97,5.53,6.4s5.29,2.15,8.83,2.15c3.01,0,5.61-.52,7.82-1.57,2.21-1.04,4.05-2.49,5.53-4.36,1.48-1.86,2.66-4.05,3.56-6.54.86-2.4,1.49-5.01,1.88-7.82h-17.26v-17.67h41.3Z"/>
    </g>
  </g>
</svg>