<?xml version="1.0" encoding="UTF-8"?>
<svg id="Layer_2" data-name="Layer 2" xmlns="http://www.w3.org/2000/svg" viewBox="0 0 721.16 107.62">
  <defs>
    <style>
      .cls-1 {
        fill: #fff;
        stroke-width: 0px;
      }
    </style>
  </defs>
  <g id="Layer_1-2" data-name="Layer 1">
    <g>
      <polygon class="cls-1" points="56.13 54.75 56.21 75.11 53.52 75.11 35.34 2.18 0 2.18 0 105.43 22.98 105.43 22.98 52.64 22.9 32.5 25.45 32.5 43.63 105.43 78.97 105.43 78.97 2.18 56.13 2.18 56.13 54.75"/>
      <path class="cls-1" d="M231.66,2.18l-28.94,103.25h26.61l4.14-17.89h32.58l4.07,17.89h28.58L269.83,2.18h-38.17ZM238.35,68.42l10.62-47.63h2.47l10.03,47.63h-23.12Z"/>
      <path class="cls-1" d="M148.22,67.26h17.25c-.39,2.82-1.01,5.42-1.87,7.82-.9,2.5-2.08,4.68-3.56,6.54-1.48,1.87-3.32,3.32-5.53,4.36-2.21,1.04-4.81,1.56-7.82,1.56-3.54,0-6.48-.71-8.83-2.15-2.35-1.43-4.19-3.56-5.53-6.4-1.33-2.84-2.27-6.34-2.8-10.51-.53-4.17-.8-8.99-.8-14.47,0-7.22.48-13.25,1.45-18.07.97-4.82,2.71-8.46,5.23-10.91,2.52-2.45,6.08-3.67,10.69-3.67,3.05,0,5.67.62,7.85,1.85,2.18,1.24,3.94,3.02,5.27,5.34,1.33,2.33,2.27,5.14,2.8,8.43l26.18-2.54c-.73-4.75-1.93-9.21-3.6-13.38-1.67-4.17-4.08-7.84-7.23-11.02-3.15-3.17-7.26-5.65-12.32-7.42-5.07-1.77-11.38-2.65-18.94-2.65-6.64,0-12.47.76-17.49,2.29-5.02,1.53-9.3,3.79-12.83,6.8-3.54,3.01-6.42,6.69-8.65,11.05-2.23,4.36-3.85,9.38-4.87,15.05-1.02,5.67-1.53,11.95-1.53,18.83,0,8.44.71,15.96,2.15,22.58,1.43,6.62,3.66,12.23,6.69,16.83,3.03,4.61,6.93,8.12,11.71,10.54,4.77,2.42,10.51,3.64,17.2,3.64,3.83,0,7.14-.45,9.93-1.34,2.79-.9,5.17-2.16,7.16-3.78,1.99-1.62,3.64-3.53,4.94-5.71,1.31-2.18,2.4-4.56,3.27-7.13h2.54l2.54,15.78h20.65v-55.84h-41.3v17.67Z"/>
      <path class="cls-1" d="M692.29,2.18h-38.17l-28.94,103.25h26.61l4.14-17.89h32.58l4.07,17.89h28.58l-28.87-103.25ZM660.81,68.42l10.62-47.63h2.47l10.03,47.63h-23.12Z"/>
      <path class="cls-1" d="M570.68,67.26h17.25c-.39,2.82-1.01,5.42-1.87,7.82-.9,2.5-2.08,4.68-3.56,6.54-1.48,1.87-3.32,3.32-5.53,4.36-2.21,1.04-4.81,1.56-7.82,1.56-3.54,0-6.48-.71-8.83-2.15-2.35-1.43-4.19-3.56-5.53-6.4-1.33-2.84-2.27-6.34-2.8-10.51-.53-4.17-.8-8.99-.8-14.47,0-7.22.48-13.25,1.45-18.07.97-4.82,2.71-8.46,5.24-10.91,2.52-2.45,6.08-3.67,10.69-3.67,3.05,0,5.67.62,7.85,1.85,2.18,1.24,3.94,3.02,5.27,5.34,1.33,2.33,2.27,5.14,2.8,8.43l26.18-2.54c-.73-4.75-1.93-9.21-3.6-13.38-1.67-4.17-4.08-7.84-7.24-11.02-3.15-3.17-7.26-5.65-12.33-7.42-5.07-1.77-11.38-2.65-18.94-2.65-6.64,0-12.47.76-17.49,2.29-5.02,1.53-9.3,3.79-12.83,6.8-3.54,3.01-6.42,6.69-8.65,11.05-2.23,4.36-3.85,9.38-4.87,15.05-1.02,5.67-1.53,11.95-1.53,18.83,0,8.44.71,15.96,2.15,22.58,1.43,6.62,3.66,12.23,6.69,16.83,3.03,4.61,6.93,8.12,11.71,10.54,4.77,2.42,10.51,3.64,17.2,3.64,3.83,0,7.14-.45,9.93-1.34,2.79-.9,5.17-2.16,7.16-3.78,1.99-1.62,3.64-3.53,4.94-5.71,1.31-2.18,2.4-4.56,3.27-7.13h2.54l2.54,15.78h20.65v-55.84h-41.3v17.67Z"/>
      <path class="cls-1" d="M330.51,23.05h37.67v44.14c0,3.01-.22,5.7-.65,8.07-.44,2.38-1.16,4.38-2.18,6-1.02,1.62-2.41,2.85-4.18,3.67-1.77.82-4.01,1.24-6.73,1.24s-4.79-.35-6.51-1.05c-1.72-.7-3.09-1.72-4.11-3.05-1.02-1.33-1.79-2.92-2.33-4.76-.53-1.84-.92-3.93-1.16-6.25l-.29-2.47-25.09,2.84.15,2.91c.34,5.19,1.33,9.84,2.98,13.96,1.65,4.12,4.06,7.62,7.23,10.51,3.17,2.88,7.21,5.08,12.11,6.58,4.9,1.5,10.71,2.25,17.45,2.25s13.11-.82,18.25-2.47c5.14-1.65,9.36-4.13,12.65-7.45,3.3-3.32,5.74-7.54,7.34-12.65,1.6-5.11,2.4-11.09,2.4-17.92V2.18h-65.01v20.87Z"/>
      <path class="cls-1" d="M442.89,2.18l-28.94,103.25h26.61l4.14-17.89h32.58l4.07,17.89h28.58L481.06,2.18h-38.17ZM449.58,68.42l10.62-47.63h2.47l10.03,47.63h-23.12Z"/>
    </g>
  </g>
</svg>